<svg version="1.1" id="Layer_1" xmlns="http://www.w3.org/2000/svg" xmlns:xlink="http://www.w3.org/1999/xlink" x="0px" y="0px"
	 width="100%" viewBox="0 0 1024 1024" enable-background="new 0 0 1024 1024" xml:space="preserve">
<path fill="#000000" opacity="1.000000" stroke="none" 
	d="
M623.735596,797.840210 
	C595.204346,808.769836 566.098633,815.281494 535.985962,817.414795 
	C467.059326,822.297668 403.076355,806.847961 345.528778,768.597961 
	C275.221191,721.866882 231.169388,656.810486 214.525650,573.664185 
	C209.764572,549.879639 207.592117,525.830383 208.978271,501.656403 
	C211.528427,457.182526 222.743347,414.916168 244.411819,375.838898 
	C288.907471,295.594666 356.212860,245.092209 445.308624,223.807816 
	C479.592224,215.617722 514.381531,214.246933 549.430359,218.537277 
	C616.654602,226.766205 674.718994,254.158630 723.835266,300.790314 
	C766.308167,341.114746 794.505554,389.741669 808.655762,446.434509 
	C816.695923,478.647461 818.977112,511.331696 815.543396,544.502625 
	C809.194641,605.834045 787.357361,660.716919 747.943970,708.202393 
	C714.417053,748.595947 673.131470,778.592163 623.735596,797.840210 
M790.699280,425.727234 
	C788.687988,420.436432 786.784180,415.101837 784.648987,409.861511 
	C760.732056,351.162903 721.572571,305.123016 667.980774,271.666077 
	C624.944702,244.798996 577.829590,230.371994 526.959167,227.947906 
	C498.598724,226.596466 470.699585,229.101044 443.294739,235.936890 
	C371.157288,253.930786 313.294769,293.334320 271.173279,354.596527 
	C225.560455,420.936554 210.182175,494.312439 225.768463,573.323547 
	C238.285721,636.776917 269.203430,690.480286 317.944855,733.120239 
	C389.268646,795.515869 472.443024,817.601868 565.490356,802.292664 
	C618.693787,793.539062 665.610413,770.493347 705.916565,734.745667 
	C768.245361,679.466003 801.381165,609.818115 805.493164,526.678284 
	C807.185364,492.463379 801.979858,458.979248 790.699280,425.727234 
z"/>
<path fill="#000000" opacity="1.000000" stroke="none" 
	d="
M593.098267,522.086182 
	C610.502808,495.760925 613.045654,468.093933 599.582092,440.208618 
	C587.580200,415.350677 566.482422,401.482330 538.764038,400.428070 
	C511.641296,399.396393 484.446808,400.347015 457.286041,400.137451 
	C451.652252,400.093964 452.222168,403.379913 452.222015,406.950165 
	C452.219025,476.940277 452.207031,546.930420 452.160950,616.920532 
	C452.157135,622.742249 452.445343,628.601929 451.051910,634.338684 
	C450.626221,636.091064 450.088074,637.816162 448.770111,640.030029 
	C445.660828,628.419617 440.066895,619.138672 428.271088,615.235596 
	C425.521973,621.712463 436.983002,667.596680 443.465820,675.245850 
	C448.189301,672.703125 446.491852,666.350342 450.211853,663.254883 
	C452.283264,664.532043 451.884033,666.543030 451.895630,668.244019 
	C452.011658,685.239929 451.962128,702.237427 452.155884,719.232178 
	C452.200439,723.140320 450.823730,724.404785 446.926941,724.392151 
	C412.098846,724.279541 377.270233,724.320801 342.441772,724.347717 
	C339.559082,724.349915 337.353363,724.339539 337.352600,720.245422 
	C337.341797,662.428284 337.169373,604.611206 337.104187,546.794006 
	C337.097443,540.805115 337.469269,534.812866 337.767853,528.827271 
	C338.093079,522.307190 339.663239,521.489136 345.318024,524.971741 
	C352.798279,515.634338 359.063049,505.427277 365.548767,495.391235 
	C371.778534,485.751221 378.142731,476.187897 384.221191,466.448364 
	C387.172668,461.719208 392.835358,458.092010 397.093689,453.776123 
	C413.240875,437.410706 429.395081,421.052185 445.544983,404.689423 
	C450.302887,399.868805 450.271729,399.320129 444.716644,395.366150 
	C410.919067,371.309753 377.113586,347.264526 343.305176,323.223358 
	C342.507294,322.656006 341.644470,322.179840 339.515442,320.853363 
	C353.741089,366.663757 369.848267,410.545685 382.355133,455.702911 
	C379.009857,453.579559 376.694763,450.704956 375.507904,446.908752 
	C373.116394,439.259399 366.853394,434.722046 361.359589,429.632965 
	C360.042358,428.412750 357.827484,429.036835 356.025879,429.494293 
	C354.047302,429.996674 352.016357,430.261047 350.131195,429.417145 
	C347.422363,428.204590 345.169708,428.249634 342.846161,430.429901 
	C340.476257,432.653656 338.898926,431.280640 338.251831,428.649628 
	C337.898346,427.212341 337.845825,425.676849 337.831116,424.183929 
	C337.558441,396.528076 337.272156,368.872223 337.093018,341.215698 
	C337.056396,335.560425 337.750580,329.890869 337.538940,324.249237 
	C337.359161,319.455780 339.038696,317.893066 343.843658,317.948914 
	C373.987366,318.299438 404.133698,318.480011 434.279602,318.566010 
	C474.273651,318.680115 514.280151,318.062836 554.258728,318.873840 
	C588.002258,319.558380 619.196777,329.205994 646.336670,350.091858 
	C652.363281,354.729675 652.102722,354.745239 647.102356,360.521667 
	C633.803833,375.884186 620.838074,391.534363 607.606934,406.955933 
	C604.380066,410.716980 606.629211,412.473206 609.566956,414.301147 
	C621.435852,421.686279 633.102844,429.428864 645.258972,436.306763 
	C651.957764,440.096863 655.762512,445.714630 658.968628,452.154236 
	C663.422852,461.100708 668.405701,469.736450 673.783203,478.159210 
	C675.529846,480.894958 677.793701,482.483124 680.964661,482.989227 
	C682.089417,483.168793 683.468323,483.386169 684.201721,484.117371 
	C688.317566,488.220459 691.163696,487.004852 694.167236,482.599579 
	C696.250732,479.543762 699.245544,477.109314 701.945007,474.279999 
	C704.691284,476.543427 704.099060,479.185242 703.877686,481.524841 
	C698.282837,540.665955 669.405762,583.730286 615.141846,608.843262 
	C599.316833,616.166992 582.313843,619.795288 564.948303,621.235352 
	C537.005859,623.552551 508.995453,621.862793 481.020508,622.359863 
	C477.292969,622.426086 476.025299,620.972229 476.037598,617.383484 
	C476.105621,597.553467 476.137177,577.722229 475.960693,557.893372 
	C475.922424,553.590393 477.674622,552.544983 481.629059,552.579468 
	C498.125336,552.723511 514.624939,552.742920 531.121216,552.583801 
	C556.473450,552.339294 577.376587,542.826355 593.098267,522.086182 
M413.695831,539.012085 
	C416.178314,535.682617 416.999023,531.938110 417.094543,527.801758 
	C417.267761,520.303040 416.433014,512.877441 415.786438,505.449310 
	C415.301666,499.880005 413.495941,495.011993 406.554688,494.458069 
	C405.055573,494.338440 403.545898,493.113953 402.233002,492.139771 
	C398.900085,489.666565 397.390289,490.920807 397.144623,494.554230 
	C397.011292,496.525757 397.098297,498.549652 397.385345,500.505981 
	C398.978302,511.362579 401.926666,521.897034 404.951782,532.423828 
	C406.037292,536.201172 407.999756,539.279907 410.333069,542.128662 
	C412.244843,542.134094 412.543915,540.612122 413.695831,539.012085 
z"/>
</svg>